<svg xmlns="http://www.w3.org/2000/svg" xmlns:xlink="http://www.w3.org/1999/xlink" width="500" zoomAndPan="magnify" viewBox="0 0 375 374.999991" height="500" preserveAspectRatio="xMidYMid meet" version="1.0"><defs><g/><clipPath id="f5a4c5e6a8"><path d="M 45.902344 137.316406 L 125.859375 137.316406 L 125.859375 237 L 45.902344 237 Z M 45.902344 137.316406 " clip-rule="nonzero"/></clipPath><clipPath id="87494a0013"><path d="M 58.394531 155.683594 L 132.644531 155.683594 L 132.644531 214.933594 L 58.394531 214.933594 Z M 58.394531 155.683594 " clip-rule="nonzero"/></clipPath></defs><g clip-path="url(#f5a4c5e6a8)"><path fill="#fffcef" d="M 45.898438 187.007812 C 46.054688 183.820312 48.179688 181.066406 50.796875 179.402344 C 71.417969 166.214844 92.039062 153.015625 112.667969 139.835938 C 115.050781 138.269531 118.082031 137.3125 120.894531 138.195312 C 124.335938 139.179688 126.125 142.914062 125.992188 146.292969 C 126.023438 173.699219 126.015625 201.097656 126.039062 228.503906 C 126.078125 231.488281 124.824219 234.792969 122.003906 236.167969 C 119.078125 237.679688 115.546875 236.777344 112.910156 235.082031 C 92.269531 221.9375 71.632812 208.777344 51 195.632812 C 48.046875 193.839844 45.640625 190.597656 45.898438 187.007812 Z M 45.898438 187.007812 " fill-opacity="1" fill-rule="nonzero"/></g><g clip-path="url(#87494a0013)"><path fill="#030009" d="M 132.507812 182.945312 L 131.636719 180.496094 C 131.164062 179.148438 129.660156 178.042969 128.316406 178.042969 L 125.230469 178.042969 C 122.9375 171.636719 120.167969 163.882812 119.300781 162.066406 C 118.035156 159.21875 114 157.953125 111.785156 157.320312 C 111.785156 157.320312 108.066406 155.894531 95.648438 155.894531 C 83.230469 155.894531 79.59375 157.320312 79.59375 157.320312 C 76.984375 158.1875 73.34375 159.453125 71.921875 162.144531 C 71.210938 163.488281 68.363281 171.398438 66.066406 178.042969 L 63.0625 178.042969 C 61.71875 178.042969 60.214844 179.148438 59.742188 180.496094 L 58.871094 182.945312 C 58.394531 184.289062 59.109375 185.398438 60.453125 185.398438 L 63.535156 185.398438 C 63.140625 186.503906 62.902344 187.136719 62.902344 187.136719 C 62.667969 187.535156 62.507812 189.351562 62.507812 189.90625 L 62.507812 212.289062 C 62.507812 213.714844 63.695312 214.902344 65.117188 214.902344 L 74.609375 214.902344 C 76.035156 214.902344 77.21875 213.714844 77.21875 212.289062 L 77.21875 207.546875 L 114.15625 207.546875 L 114.15625 212.289062 C 114.15625 213.714844 115.34375 214.902344 116.769531 214.902344 L 126.339844 214.902344 C 127.761719 214.902344 128.949219 213.714844 128.949219 212.289062 L 128.949219 189.90625 C 128.949219 189.433594 128.789062 187.535156 128.554688 187.136719 C 128.554688 187.136719 128.316406 186.503906 127.921875 185.398438 L 130.925781 185.398438 C 132.191406 185.398438 132.902344 184.289062 132.507812 182.945312 Z M 77.21875 196.707031 L 74.058594 194.574219 C 68.203125 194.097656 67.492188 196.15625 66.226562 193.941406 L 66.226562 191.25 C 66.226562 188.640625 67.730469 188.5625 69.390625 188.5625 C 70.972656 188.5625 74.136719 189.90625 76.269531 190.855469 C 78.566406 191.882812 80.226562 191.015625 81.097656 194.414062 C 81.015625 195.996094 80.148438 196.707031 77.21875 196.707031 Z M 71.683594 179.070312 C 73.660156 171.003906 76.984375 165.386719 77.457031 164.042969 C 77.773438 163.09375 76.984375 161.351562 95.730469 161.351562 C 114.472656 161.351562 113.445312 163.882812 113.523438 163.964844 C 114.394531 165.78125 117.875 171.714844 119.695312 179.070312 C 119.695312 179.070312 112.65625 180.019531 96.597656 180.019531 C 80.542969 180.019531 71.683594 179.070312 71.683594 179.070312 Z M 110.363281 194.414062 C 114.078125 189.828125 112.890625 191.882812 115.1875 190.855469 C 117.242188 189.90625 120.484375 188.5625 122.066406 188.5625 C 123.730469 188.5625 125.230469 188.640625 125.230469 191.25 L 125.230469 193.941406 C 124.042969 196.074219 123.015625 194.179688 117.085938 194.730469 L 114.15625 196.628906 C 111.230469 196.707031 109.332031 195.601562 110.363281 194.414062 Z M 110.363281 194.414062 " fill-opacity="1" fill-rule="nonzero"/></g><g fill="#fffcef" fill-opacity="1"><g transform="translate(133.663925, 214.865201)"><g><path d="M 4.882812 -3.804688 L 8.300781 -9.65625 L 6.941406 -9.65625 L 4.339844 -4.96875 L 1.652344 -9.65625 L 0.265625 -9.65625 L 3.679688 -3.804688 L 3.679688 0 L 4.882812 0 Z M 4.882812 -3.804688 "/></g></g></g><g fill="#fffcef" fill-opacity="1"><g transform="translate(142.115384, 214.865201)"><g><path d="M 4.101562 -7.613281 C 1.582031 -7.613281 0.417969 -5.808594 0.417969 -3.707031 C 0.417969 -1.625 1.582031 0.195312 4.101562 0.195312 C 6.621094 0.195312 7.78125 -1.625 7.78125 -3.707031 C 7.78125 -5.808594 6.621094 -7.613281 4.101562 -7.613281 Z M 4.101562 -0.726562 C 2.601562 -0.726562 1.734375 -1.972656 1.734375 -3.707031 C 1.734375 -5.457031 2.601562 -6.691406 4.101562 -6.691406 C 5.597656 -6.691406 6.464844 -5.457031 6.464844 -3.707031 C 6.464844 -1.972656 5.597656 -0.726562 4.101562 -0.726562 Z M 4.101562 -0.726562 "/></g></g></g><g fill="#fffcef" fill-opacity="1"><g transform="translate(150.636813, 214.865201)"><g><path d="M 7.195312 -7.417969 L 5.988281 -7.417969 L 5.988281 -4.15625 C 5.988281 -1.625 5.066406 -0.753906 3.90625 -0.753906 C 2.898438 -0.753906 2.296875 -1.328125 2.183594 -2.167969 C 2.140625 -2.546875 2.128906 -2.953125 2.128906 -3.191406 L 2.128906 -7.417969 L 0.921875 -7.417969 L 0.921875 -2.96875 C 0.921875 -2.363281 0.9375 -2.070312 0.992188 -1.695312 C 1.160156 -0.671875 2.058594 0.195312 3.597656 0.195312 C 4.351562 0.195312 4.898438 0.0703125 5.527344 -0.390625 L 5.988281 -1.257812 L 5.988281 0 L 7.195312 0 Z M 7.195312 -7.417969 "/></g></g></g><g fill="#fffcef" fill-opacity="1"><g transform="translate(159.242196, 214.865201)"><g><path d="M 3.945312 -7.585938 C 3.597656 -7.585938 3.21875 -7.460938 2.910156 -7.25 L 2.238281 -6.253906 L 2.238281 -7.417969 L 1.035156 -7.417969 L 1.035156 0 L 2.238281 0 L 2.238281 -4.226562 C 2.238281 -5.917969 3.191406 -6.660156 4.449219 -6.578125 L 4.449219 -7.488281 C 4.308594 -7.558594 4.140625 -7.585938 3.945312 -7.585938 Z M 3.945312 -7.585938 "/></g></g></g><g fill="#fffcef" fill-opacity="1"><g transform="translate(164.181623, 214.865201)"><g/></g></g><g fill="#fffcef" fill-opacity="1"><g transform="translate(167.525938, 214.865201)"><g><path d="M 8.566406 -8.675781 L 8.566406 -9.65625 L 0.476562 -9.65625 L 0.476562 -8.675781 L 3.917969 -8.675781 L 3.917969 0 L 5.121094 0 L 5.121094 -8.675781 Z M 8.566406 -8.675781 "/></g></g></g><g fill="#fffcef" fill-opacity="1"><g transform="translate(176.411162, 214.865201)"><g><path d="M 3.945312 -7.585938 C 3.597656 -7.585938 3.21875 -7.460938 2.910156 -7.25 L 2.238281 -6.253906 L 2.238281 -7.417969 L 1.035156 -7.417969 L 1.035156 0 L 2.238281 0 L 2.238281 -4.226562 C 2.238281 -5.917969 3.191406 -6.660156 4.449219 -6.578125 L 4.449219 -7.488281 C 4.308594 -7.558594 4.140625 -7.585938 3.945312 -7.585938 Z M 3.945312 -7.585938 "/></g></g></g><g fill="#fffcef" fill-opacity="1"><g transform="translate(181.350589, 214.865201)"><g><path d="M 7.195312 -7.417969 L 5.988281 -7.417969 L 5.988281 -4.15625 C 5.988281 -1.625 5.066406 -0.753906 3.90625 -0.753906 C 2.898438 -0.753906 2.296875 -1.328125 2.183594 -2.167969 C 2.140625 -2.546875 2.128906 -2.953125 2.128906 -3.191406 L 2.128906 -7.417969 L 0.921875 -7.417969 L 0.921875 -2.96875 C 0.921875 -2.363281 0.9375 -2.070312 0.992188 -1.695312 C 1.160156 -0.671875 2.058594 0.195312 3.597656 0.195312 C 4.351562 0.195312 4.898438 0.0703125 5.527344 -0.390625 L 5.988281 -1.257812 L 5.988281 0 L 7.195312 0 Z M 7.195312 -7.417969 "/></g></g></g><g fill="#fffcef" fill-opacity="1"><g transform="translate(189.955973, 214.865201)"><g><path d="M 3.191406 -7.613281 C 1.664062 -7.613281 0.628906 -6.800781 0.628906 -5.445312 C 0.628906 -4.140625 1.695312 -3.597656 3.023438 -3.234375 C 4.269531 -2.898438 4.773438 -2.519531 4.773438 -1.804688 C 4.773438 -1.089844 4.128906 -0.726562 3.332031 -0.726562 C 2.476562 -0.726562 1.792969 -1.105469 1.59375 -2.183594 L 0.335938 -2.183594 C 0.558594 -0.503906 1.722656 0.195312 3.246094 0.195312 C 4.8125 0.195312 6.003906 -0.503906 6.003906 -1.902344 C 6.003906 -3.164062 5.191406 -3.835938 3.484375 -4.28125 C 2.476562 -4.546875 1.863281 -4.84375 1.863281 -5.585938 C 1.863281 -6.226562 2.253906 -6.691406 3.09375 -6.691406 C 3.960938 -6.691406 4.492188 -6.171875 4.660156 -5.304688 L 5.917969 -5.304688 C 5.765625 -6.660156 4.855469 -7.613281 3.191406 -7.613281 Z M 3.191406 -7.613281 "/></g></g></g><g fill="#fffcef" fill-opacity="1"><g transform="translate(196.700388, 214.865201)"><g><path d="M 2.476562 -6.4375 L 3.863281 -6.4375 L 3.863281 -7.363281 L 2.476562 -7.363281 L 2.476562 -9.082031 L 1.273438 -9.082031 L 1.273438 -7.363281 L 0.28125 -7.363281 L 0.28125 -6.4375 L 1.273438 -6.4375 L 1.273438 -2.113281 C 1.273438 -1.695312 1.273438 -1.386719 1.289062 -1.191406 C 1.359375 -0.265625 1.832031 0.113281 2.757812 0.113281 C 3.09375 0.113281 3.429688 0.0976562 3.777344 0.0429688 L 3.777344 -0.839844 C 2.839844 -0.726562 2.546875 -0.882812 2.492188 -1.59375 C 2.476562 -1.792969 2.476562 -1.917969 2.476562 -2.167969 Z M 2.476562 -6.4375 "/></g></g></g><g fill="#fffcef" fill-opacity="1"><g transform="translate(201.401941, 214.865201)"><g><path d="M 7.125 -3.917969 C 7.125 -6.085938 5.988281 -7.613281 3.945312 -7.613281 C 1.917969 -7.613281 0.417969 -6.085938 0.417969 -3.679688 C 0.417969 -1.0625 1.863281 0.195312 3.792969 0.195312 C 5.316406 0.195312 6.730469 -0.601562 7.027344 -2.394531 L 5.765625 -2.394531 C 5.597656 -1.328125 4.8125 -0.726562 3.847656 -0.726562 C 2.757812 -0.726562 1.832031 -1.386719 1.722656 -3.34375 L 7.09375 -3.34375 C 7.125 -3.609375 7.125 -3.804688 7.125 -3.917969 Z M 3.917969 -6.691406 C 5.136719 -6.691406 5.792969 -5.808594 5.90625 -4.269531 L 1.734375 -4.269531 C 1.875 -5.851562 2.742188 -6.691406 3.917969 -6.691406 Z M 3.917969 -6.691406 "/></g></g></g><g fill="#fffcef" fill-opacity="1"><g transform="translate(209.405652, 214.865201)"><g><path d="M 7.515625 -10.285156 L 6.3125 -10.285156 L 6.3125 -6.394531 L 5.820312 -7.125 C 5.445312 -7.429688 4.660156 -7.613281 4.042969 -7.613281 C 2.128906 -7.613281 0.417969 -6.339844 0.417969 -3.597656 C 0.417969 -1.425781 1.625 0.195312 3.792969 0.195312 C 4.546875 0.195312 5.332031 -0.0429688 5.75 -0.390625 L 6.3125 -1.191406 L 6.3125 0 L 7.515625 0 Z M 3.972656 -0.726562 C 2.492188 -0.726562 1.734375 -2.058594 1.734375 -3.738281 C 1.734375 -5.683594 2.742188 -6.691406 4.042969 -6.691406 C 5.109375 -6.691406 6.3125 -5.960938 6.3125 -4.042969 L 6.3125 -3.640625 C 6.3125 -1.511719 5.207031 -0.726562 3.972656 -0.726562 Z M 3.972656 -0.726562 "/></g></g></g><g fill="#fffcef" fill-opacity="1"><g transform="translate(218.332856, 214.865201)"><g/></g></g><g fill="#fffcef" fill-opacity="1"><g transform="translate(221.677174, 214.865201)"><g><path d="M 5.402344 0 L 8.871094 -9.65625 L 7.585938 -9.65625 L 4.617188 -0.910156 L 1.75 -9.65625 L 0.449219 -9.65625 L 3.777344 0 Z M 5.402344 0 "/></g></g></g><g fill="#fffcef" fill-opacity="1"><g transform="translate(230.70231, 214.865201)"><g><path d="M 7.125 -3.917969 C 7.125 -6.085938 5.988281 -7.613281 3.945312 -7.613281 C 1.917969 -7.613281 0.417969 -6.085938 0.417969 -3.679688 C 0.417969 -1.0625 1.863281 0.195312 3.792969 0.195312 C 5.316406 0.195312 6.730469 -0.601562 7.027344 -2.394531 L 5.765625 -2.394531 C 5.597656 -1.328125 4.8125 -0.726562 3.847656 -0.726562 C 2.757812 -0.726562 1.832031 -1.386719 1.722656 -3.34375 L 7.09375 -3.34375 C 7.125 -3.609375 7.125 -3.804688 7.125 -3.917969 Z M 3.917969 -6.691406 C 5.136719 -6.691406 5.792969 -5.808594 5.90625 -4.269531 L 1.734375 -4.269531 C 1.875 -5.851562 2.742188 -6.691406 3.917969 -6.691406 Z M 3.917969 -6.691406 "/></g></g></g><g fill="#fffcef" fill-opacity="1"><g transform="translate(238.706021, 214.865201)"><g><path d="M 7.277344 -5.445312 C 7.164062 -6.746094 6.253906 -7.613281 4.632812 -7.613281 C 3.875 -7.613281 3.332031 -7.488281 2.699219 -6.996094 L 2.238281 -6.144531 L 2.238281 -10.355469 L 1.035156 -10.355469 L 1.035156 0 L 2.238281 0 L 2.238281 -3.261719 C 2.238281 -5.792969 3.21875 -6.632812 4.378906 -6.660156 C 5.527344 -6.691406 6.003906 -6.019531 6.074219 -5.148438 C 6.101562 -4.773438 6.101562 -4.464844 6.101562 -4.085938 L 6.101562 0 L 7.304688 0 L 7.304688 -4.171875 C 7.304688 -4.773438 7.304688 -5.066406 7.277344 -5.445312 Z M 7.277344 -5.445312 "/></g></g></g><g fill="#fffcef" fill-opacity="1"><g transform="translate(247.32539, 214.865201)"><g><path d="M 1.636719 -9.851562 C 1.203125 -9.851562 0.867188 -9.515625 0.867188 -9.082031 C 0.867188 -8.648438 1.203125 -8.3125 1.636719 -8.3125 C 2.070312 -8.3125 2.40625 -8.648438 2.40625 -9.082031 C 2.40625 -9.515625 2.070312 -9.851562 1.636719 -9.851562 Z M 2.238281 0 L 2.238281 -7.417969 L 1.035156 -7.417969 L 1.035156 0 Z M 2.238281 0 "/></g></g></g><g fill="#fffcef" fill-opacity="1"><g transform="translate(250.977532, 214.865201)"><g><path d="M 3.90625 -7.613281 C 2.042969 -7.613281 0.417969 -6.199219 0.417969 -3.695312 C 0.417969 -0.980469 1.847656 0.195312 3.722656 0.195312 C 5.375 0.195312 6.605469 -0.644531 6.96875 -2.363281 L 5.710938 -2.363281 C 5.457031 -1.289062 4.773438 -0.726562 3.792969 -0.726562 C 2.6875 -0.726562 1.734375 -1.625 1.734375 -3.777344 C 1.734375 -5.78125 2.714844 -6.691406 3.875 -6.691406 C 4.871094 -6.691406 5.515625 -6.117188 5.78125 -4.925781 L 7.039062 -4.925781 C 6.816406 -6.550781 5.683594 -7.613281 3.90625 -7.613281 Z M 3.90625 -7.613281 "/></g></g></g><g fill="#fffcef" fill-opacity="1"><g transform="translate(258.7014, 214.865201)"><g><path d="M 2.183594 -10.285156 L 0.980469 -10.285156 L 0.980469 -2.085938 C 0.980469 -1.679688 0.980469 -1.359375 0.992188 -1.105469 C 1.035156 -0.167969 1.554688 0.0546875 2.253906 0.0546875 C 2.53125 0.0546875 2.839844 0.0429688 3.105469 0 L 3.105469 -0.867188 C 2.449219 -0.796875 2.226562 -0.953125 2.195312 -1.425781 C 2.183594 -1.664062 2.183594 -1.902344 2.183594 -2.128906 Z M 2.183594 -10.285156 "/></g></g></g><g fill="#fffcef" fill-opacity="1"><g transform="translate(262.479472, 214.865201)"><g><path d="M 7.125 -3.917969 C 7.125 -6.085938 5.988281 -7.613281 3.945312 -7.613281 C 1.917969 -7.613281 0.417969 -6.085938 0.417969 -3.679688 C 0.417969 -1.0625 1.863281 0.195312 3.792969 0.195312 C 5.316406 0.195312 6.730469 -0.601562 7.027344 -2.394531 L 5.765625 -2.394531 C 5.597656 -1.328125 4.8125 -0.726562 3.847656 -0.726562 C 2.757812 -0.726562 1.832031 -1.386719 1.722656 -3.34375 L 7.09375 -3.34375 C 7.125 -3.609375 7.125 -3.804688 7.125 -3.917969 Z M 3.917969 -6.691406 C 5.136719 -6.691406 5.792969 -5.808594 5.90625 -4.269531 L 1.734375 -4.269531 C 1.875 -5.851562 2.742188 -6.691406 3.917969 -6.691406 Z M 3.917969 -6.691406 "/></g></g></g><g fill="#fffcef" fill-opacity="1"><g transform="translate(270.483184, 214.865201)"><g/></g></g><g fill="#fffcef" fill-opacity="1"><g transform="translate(273.827502, 214.865201)"><g><path d="M 7.753906 -2.53125 C 7.667969 -3.5 7.292969 -4.378906 6.507812 -4.746094 C 7.402344 -5.023438 8.230469 -5.75 8.230469 -7.027344 C 8.230469 -8.648438 7.222656 -9.417969 5.820312 -9.601562 C 5.386719 -9.65625 5.050781 -9.65625 4.5625 -9.65625 L 1.398438 -9.65625 L 1.398438 0 L 2.601562 0 L 2.601562 -4.15625 L 4.421875 -4.15625 C 4.644531 -4.15625 4.882812 -4.15625 5.109375 -4.140625 C 6.058594 -4.074219 6.4375 -3.414062 6.550781 -2.421875 C 6.675781 -1.230469 6.800781 -0.617188 7.066406 0 L 8.398438 0 C 8.003906 -0.519531 7.863281 -1.273438 7.753906 -2.53125 Z M 2.601562 -5.136719 L 2.601562 -8.675781 L 4.5625 -8.675781 C 4.996094 -8.675781 5.261719 -8.664062 5.527344 -8.621094 C 6.421875 -8.480469 6.941406 -7.992188 6.941406 -6.914062 C 6.941406 -5.820312 6.285156 -5.25 5.386719 -5.164062 C 5.121094 -5.136719 4.882812 -5.136719 4.449219 -5.136719 Z M 2.601562 -5.136719 "/></g></g></g><g fill="#fffcef" fill-opacity="1"><g transform="translate(282.810667, 214.865201)"><g><path d="M 7.125 -3.917969 C 7.125 -6.085938 5.988281 -7.613281 3.945312 -7.613281 C 1.917969 -7.613281 0.417969 -6.085938 0.417969 -3.679688 C 0.417969 -1.0625 1.863281 0.195312 3.792969 0.195312 C 5.316406 0.195312 6.730469 -0.601562 7.027344 -2.394531 L 5.765625 -2.394531 C 5.597656 -1.328125 4.8125 -0.726562 3.847656 -0.726562 C 2.757812 -0.726562 1.832031 -1.386719 1.722656 -3.34375 L 7.09375 -3.34375 C 7.125 -3.609375 7.125 -3.804688 7.125 -3.917969 Z M 3.917969 -6.691406 C 5.136719 -6.691406 5.792969 -5.808594 5.90625 -4.269531 L 1.734375 -4.269531 C 1.875 -5.851562 2.742188 -6.691406 3.917969 -6.691406 Z M 3.917969 -6.691406 "/></g></g></g><g fill="#fffcef" fill-opacity="1"><g transform="translate(290.814378, 214.865201)"><g><path d="M 7.277344 -5.445312 C 7.164062 -6.746094 6.253906 -7.613281 4.632812 -7.613281 C 3.875 -7.613281 3.332031 -7.488281 2.699219 -6.996094 L 2.238281 -6.144531 L 2.238281 -7.417969 L 1.035156 -7.417969 L 1.035156 0 L 2.238281 0 L 2.238281 -3.261719 C 2.238281 -5.792969 3.21875 -6.660156 4.378906 -6.660156 C 5.527344 -6.660156 6.003906 -6.019531 6.074219 -5.148438 C 6.101562 -4.773438 6.101562 -4.464844 6.101562 -4.085938 L 6.101562 0 L 7.304688 0 L 7.304688 -4.171875 C 7.304688 -4.773438 7.304688 -5.066406 7.277344 -5.445312 Z M 7.277344 -5.445312 "/></g></g></g><g fill="#fffcef" fill-opacity="1"><g transform="translate(299.433747, 214.865201)"><g><path d="M 2.476562 -6.4375 L 3.863281 -6.4375 L 3.863281 -7.363281 L 2.476562 -7.363281 L 2.476562 -9.082031 L 1.273438 -9.082031 L 1.273438 -7.363281 L 0.28125 -7.363281 L 0.28125 -6.4375 L 1.273438 -6.4375 L 1.273438 -2.113281 C 1.273438 -1.695312 1.273438 -1.386719 1.289062 -1.191406 C 1.359375 -0.265625 1.832031 0.113281 2.757812 0.113281 C 3.09375 0.113281 3.429688 0.0976562 3.777344 0.0429688 L 3.777344 -0.839844 C 2.839844 -0.726562 2.546875 -0.882812 2.492188 -1.59375 C 2.476562 -1.792969 2.476562 -1.917969 2.476562 -2.167969 Z M 2.476562 -6.4375 "/></g></g></g><g fill="#fffcef" fill-opacity="1"><g transform="translate(304.1353, 214.865201)"><g><path d="M 5.289062 0 L 6.492188 0 C 6.382812 -0.824219 6.355469 -1.328125 6.355469 -1.890625 L 6.355469 -4.675781 C 6.355469 -4.996094 6.339844 -5.359375 6.3125 -5.652344 C 6.1875 -6.871094 5.445312 -7.613281 3.679688 -7.613281 C 2.042969 -7.613281 0.9375 -6.703125 0.824219 -5.121094 L 2.085938 -5.121094 C 2.167969 -6.144531 2.671875 -6.691406 3.679688 -6.691406 C 4.675781 -6.691406 5.066406 -6.242188 5.121094 -5.554688 C 5.148438 -5.277344 5.148438 -4.980469 5.148438 -4.660156 L 5.148438 -4.464844 L 4.675781 -4.464844 C 1.761719 -4.464844 0.503906 -3.597656 0.503906 -1.917969 C 0.503906 -0.546875 1.554688 0.195312 2.898438 0.195312 C 3.609375 0.195312 4.253906 0.0820312 4.757812 -0.265625 L 5.164062 -1.0625 Z M 3.304688 -0.726562 C 2.394531 -0.726562 1.820312 -1.121094 1.820312 -2.015625 C 1.820312 -3.289062 3.105469 -3.722656 5.148438 -3.570312 L 5.148438 -2.8125 C 5.148438 -1.46875 4.421875 -0.726562 3.304688 -0.726562 Z M 3.304688 -0.726562 "/></g></g></g><g fill="#fffcef" fill-opacity="1"><g transform="translate(311.88715, 214.865201)"><g><path d="M 2.183594 -10.285156 L 0.980469 -10.285156 L 0.980469 -2.085938 C 0.980469 -1.679688 0.980469 -1.359375 0.992188 -1.105469 C 1.035156 -0.167969 1.554688 0.0546875 2.253906 0.0546875 C 2.53125 0.0546875 2.839844 0.0429688 3.105469 0 L 3.105469 -0.867188 C 2.449219 -0.796875 2.226562 -0.953125 2.195312 -1.425781 C 2.183594 -1.664062 2.183594 -1.902344 2.183594 -2.128906 Z M 2.183594 -10.285156 "/></g></g></g><g fill="#fffcef" fill-opacity="1"><g transform="translate(133.663925, 192.765223)"><g><path d="M 28.617188 -27.082031 C 28.617188 -31.585938 26.710938 -35.292969 23.316406 -37.363281 C 21.09375 -38.6875 18.496094 -39.164062 13.300781 -39.164062 L 3.605469 -39.164062 L 3.605469 0 L 10.863281 0 L 10.863281 -14.890625 L 13.195312 -14.890625 C 18.761719 -14.890625 21.304688 -15.316406 23.476562 -16.640625 C 26.65625 -18.601562 28.617188 -22.574219 28.617188 -27.082031 Z M 21.304688 -26.972656 C 21.304688 -23.582031 19.503906 -21.832031 12.984375 -21.832031 L 10.863281 -21.832031 L 10.863281 -32.222656 L 13.300781 -32.222656 C 18.867188 -32.222656 21.304688 -31.109375 21.304688 -26.972656 Z M 21.304688 -26.972656 "/></g></g></g><g fill="#fffcef" fill-opacity="1"><g transform="translate(163.339575, 192.765223)"><g><path d="M 16.214844 -23.265625 L 16.214844 -30.046875 L 15.6875 -30.046875 C 12.664062 -30.046875 11.183594 -29.199219 9.328125 -26.496094 L 9.328125 -29.359375 L 2.863281 -29.359375 L 2.863281 0 L 9.910156 0 L 9.910156 -16.324219 C 9.910156 -20.878906 11.976562 -23.160156 16.214844 -23.265625 Z M 16.214844 -23.265625 "/></g></g></g><g fill="#fffcef" fill-opacity="1"><g transform="translate(180.297086, 192.765223)"><g><path d="M 32.804688 -14.46875 C 32.804688 -23.210938 25.96875 -30.046875 17.117188 -30.046875 C 8.585938 -30.046875 1.589844 -23.105469 1.589844 -14.679688 C 1.589844 -6.199219 8.585938 0.6875 17.171875 0.6875 C 25.703125 0.6875 32.804688 -6.199219 32.804688 -14.46875 Z M 25.703125 -14.679688 C 25.703125 -9.75 21.886719 -5.777344 17.222656 -5.777344 C 12.453125 -5.777344 8.691406 -9.75 8.691406 -14.785156 C 8.691406 -19.609375 12.558594 -23.582031 17.171875 -23.582031 C 21.886719 -23.582031 25.703125 -19.554688 25.703125 -14.679688 Z M 25.703125 -14.679688 "/></g></g></g><g fill="#fffcef" fill-opacity="1"><g transform="translate(214.212107, 192.765223)"><g><path d="M 30.101562 0 L 19.503906 -14.46875 C 26.550781 -16.214844 29.730469 -20.507812 29.730469 -26.601562 C 29.730469 -30.578125 28.300781 -33.96875 25.597656 -36.25 C 23.054688 -38.421875 20.242188 -39.164062 14.890625 -39.164062 L 3.605469 -39.164062 L 3.605469 0 L 10.863281 0 L 10.863281 -14.996094 L 21.144531 0 Z M 22.417969 -26.390625 C 22.417969 -22.257812 20.03125 -20.457031 14.414062 -20.457031 L 10.863281 -20.457031 L 10.863281 -32.222656 L 14.097656 -32.222656 C 20.984375 -32.222656 22.417969 -29.890625 22.417969 -26.390625 Z M 22.417969 -26.390625 "/></g></g></g><g fill="#fffcef" fill-opacity="1"><g transform="translate(244.947594, 192.765223)"><g><path d="M 9.910156 0 L 9.910156 -29.359375 L 2.863281 -29.359375 L 2.863281 0 Z M 9.964844 -33.597656 L 9.964844 -40.648438 L 2.914062 -40.648438 L 2.914062 -33.597656 Z M 9.964844 -33.597656 "/></g></g></g><g fill="#fffcef" fill-opacity="1"><g transform="translate(257.665733, 192.765223)"><g><path d="M 32.484375 0 L 32.484375 -39.164062 L 25.4375 -39.164062 L 25.4375 -26.761719 C 23.371094 -29.042969 19.980469 -30.417969 16.269531 -30.417969 C 8.054688 -30.417969 1.589844 -23.53125 1.589844 -14.734375 C 1.589844 -6.042969 8.003906 0.6875 16.324219 0.6875 C 20.296875 0.6875 23.210938 -0.636719 26.019531 -3.816406 L 26.019531 0 Z M 25.96875 -14.839844 C 25.96875 -9.75 22.203125 -5.777344 17.433594 -5.777344 C 12.507812 -5.777344 8.691406 -9.855469 8.691406 -15.050781 C 8.691406 -20.03125 12.453125 -23.953125 17.277344 -23.953125 C 22.203125 -23.953125 25.96875 -19.980469 25.96875 -14.839844 Z M 25.96875 -14.839844 "/></g></g></g><g fill="#fffcef" fill-opacity="1"><g transform="translate(292.640603, 192.765223)"><g><path d="M 32.222656 -14.253906 C 32.222656 -23.371094 25.808594 -30.046875 17.0625 -30.046875 C 8.425781 -30.046875 1.589844 -23.210938 1.589844 -14.574219 C 1.589844 -5.988281 8.53125 0.6875 17.488281 0.6875 C 23.421875 0.6875 29.519531 -2.648438 31.480469 -8.691406 L 23.792969 -8.691406 C 21.992188 -6.570312 20.242188 -5.777344 17.328125 -5.777344 C 13.144531 -5.777344 10.070312 -8.003906 9.222656 -11.554688 L 31.957031 -11.554688 C 32.167969 -12.558594 32.222656 -13.195312 32.222656 -14.253906 Z M 25.277344 -17.753906 L 9.007812 -17.753906 C 10.121094 -21.515625 12.984375 -23.582031 17.171875 -23.582031 C 21.515625 -23.582031 24.378906 -21.515625 25.277344 -17.753906 Z M 25.277344 -17.753906 "/></g></g></g><g fill="#fffcef" fill-opacity="1"><g transform="translate(326.555636, 192.765223)"><g><path d="M 22.257812 -9.328125 C 22.257812 -13.671875 20.242188 -16.003906 14.097656 -17.914062 C 9.273438 -19.449219 9.113281 -19.554688 9.113281 -21.09375 C 9.113281 -22.523438 10.28125 -23.582031 11.816406 -23.582031 C 13.300781 -23.582031 14.253906 -22.789062 14.574219 -21.25 L 21.464844 -21.25 C 21.199219 -26.761719 16.800781 -30.046875 11.816406 -30.046875 C 6.359375 -30.046875 2.066406 -26.125 2.066406 -21.09375 C 2.066406 -16.800781 4.398438 -14.363281 10.226562 -12.402344 C 14.945312 -10.8125 15.210938 -10.335938 15.210938 -8.636719 C 15.210938 -6.996094 13.832031 -5.777344 12.03125 -5.777344 C 9.964844 -5.777344 8.796875 -6.835938 8.109375 -9.328125 L 1.007812 -9.328125 C 1.75 -2.492188 5.933594 0.6875 11.765625 0.6875 C 17.648438 0.6875 22.257812 -3.710938 22.257812 -9.328125 Z M 22.257812 -9.328125 "/></g></g></g></svg>